<?xml version="1.0" encoding="utf-8" standalone="yes"?>
<!DOCTYPE svg PUBLIC "-//W3C//DTD SVG 1.1//EN" "http://www.w3.org/Graphics/SVG/1.1/DTD/svg11.dtd">
<svg xmlns="http://www.w3.org/2000/svg" xmlns:xlink="http://www.w3.org/1999/xlink" xmlns:dc="http://purl.org/dc/elements/1.1/" xmlns:cc="http://web.resource.org/cc/" xmlns:rdf="http://www.w3.org/1999/02/22-rdf-syntax-ns#" xmlns:sodipodi="http://sodipodi.sourceforge.net/DTD/sodipodi-0.dtd" xmlns:inkscape="http://www.inkscape.org/namespaces/inkscape" version="1.1" baseProfile="full" width="512px" height="512px" viewBox="0 0 512 512" preserveAspectRatio="none" id="svg_document" style="zoom: 1;"><title id="svg_document_title">Untitled.svg</title><defs id="svg_document_defs"><linearGradient id="linearGradient1" x1="0%" y1="0%" x2="0%" y2="100%"><stop id="stop1" offset="0%" stop-color="white"></stop><stop id="stop2" offset="100%" stop-color="black"></stop></linearGradient><radialGradient id="radialGradient1" cx="50%" cy="50%" fx="50%" fy="50%" r="50%"><stop id="stop3" offset="0%" stop-color="white"></stop><stop id="stop4" offset="100%" stop-color="#eaeaea"></stop></radialGradient><radialGradient id="radialGradient2" cx="50%" cy="50%" fx="50%" fy="50%" r="50%"><stop id="stop5" offset="0%" stop-color="#e59d36"></stop><stop id="stop7" stop-color="#ffb13b" offset="50%"></stop><stop id="stop6" offset="100%" stop-color="#ffb13b"></stop></radialGradient></defs><defs id="defs6683"><linearGradient id="linearGradient5721" y2="98.179" xlink:href="#linearGradient5568" spreadMethod="reflect" gradientUnits="userSpaceOnUse" x2="-58.255" gradientTransform="matrix(.64446 0 0 .55819 -257.11 -287.17)" y1="98.404" x1="-76.165" inkscape:collect="always"></linearGradient><linearGradient id="linearGradient5719" y2="-994.43" xlink:href="#linearGradient5333" spreadMethod="reflect" gradientUnits="userSpaceOnUse" x2="-303.21" gradientTransform="matrix(.51556 0 0 .054657 -229.96 -221.35)" y1="-994.43" x1="-268.7" inkscape:collect="always"></linearGradient><linearGradient id="linearGradient5333"><stop id="stop5335" style="stop-color:#ffffff" offset="0"></stop><stop id="stop5339" style="stop-color:#bfbfbf" offset=".5"></stop><stop id="stop5343" style="stop-color:#858585" offset=".625"></stop><stop id="stop5345" style="stop-color:#bbc5c9" offset=".6875"></stop><stop id="stop5341" style="stop-color:#ffffff" offset=".75"></stop><stop id="stop5337" style="stop-color:#7f7f7f" offset="1"></stop></linearGradient><linearGradient id="linearGradient5568"><stop id="stop5570" style="stop-color:#171717" offset="0"></stop><stop id="stop5572" style="stop-color:#606060" offset=".45946"></stop><stop id="stop5574" style="stop-color:#e0e0e0" offset=".91892"></stop><stop id="stop5576" style="stop-color:#656565" offset="1"></stop></linearGradient><linearGradient id="linearGradient5532" y2="99.707" xlink:href="#linearGradient5568" spreadMethod="reflect" gradientUnits="userSpaceOnUse" x2="-58.696" y1="95.348" x1="-77.047" inkscape:collect="always"></linearGradient><linearGradient id="linearGradient6756" y2="-40.544" xlink:href="#linearGradient5333" gradientUnits="userSpaceOnUse" x2="-231.06" gradientTransform="matrix(1.2485 -.0043667 -.032761 1.2493 584.71 534.65)" y1="-85.282" x1="-211.39" inkscape:collect="always"></linearGradient><linearGradient id="linearGradient6762" y2="98.179" xlink:href="#linearGradient5568" spreadMethod="reflect" gradientUnits="userSpaceOnUse" x2="-58.255" gradientTransform="matrix(.57332 0 0 .49658 377.14 285.38)" y1="98.404" x1="-76.165" inkscape:collect="always"></linearGradient><linearGradient id="linearGradient6768" y2="98.179" xlink:href="#linearGradient5568" spreadMethod="reflect" gradientUnits="userSpaceOnUse" x2="-58.255" gradientTransform="matrix(1.0561 0 0 .91477 412.08 275.17)" y1="98.404" x1="-76.165" inkscape:collect="always"></linearGradient><linearGradient id="linearGradient6771" y2="-1189.2" xlink:href="#linearGradient5333" spreadMethod="reflect" gradientUnits="userSpaceOnUse" x2="-340.93" gradientTransform="matrix(.59871 0 0 .047643 559.8 451.95)" y1="-1189.2" x1="-376.62" inkscape:collect="always"></linearGradient><linearGradient id="linearGradient6775" y2="98.179" xlink:href="#linearGradient5568" spreadMethod="reflect" gradientUnits="userSpaceOnUse" x2="-58.255" gradientTransform="matrix(.84492 0 0 .73181 456.7 523.57)" y1="98.404" x1="-76.165" inkscape:collect="always"></linearGradient><linearGradient id="linearGradient6778" y2="98.179" xlink:href="#linearGradient5568" spreadMethod="reflect" gradientUnits="userSpaceOnUse" x2="-58.255" gradientTransform="matrix(1.0561 0 0 .91477 412.36 527)" y1="98.404" x1="-76.165" inkscape:collect="always"></linearGradient><linearGradient id="linearGradient6781" y2="99.07" xlink:href="#linearGradient5568" spreadMethod="repeat" gradientUnits="userSpaceOnUse" x2="-140.33" gradientTransform="matrix(.84492 0 0 .73181 447.41 564.73)" y1="103.18" x1="-138.27" inkscape:collect="always"></linearGradient><linearGradient id="linearGradient6784" y2="83.688" xlink:href="#linearGradient5333" gradientUnits="userSpaceOnUse" x2="-187.45" gradientTransform="matrix(1.25 0 0 1.25 587.69 535.63)" y1="83.688" x1="-213.25" inkscape:collect="always"></linearGradient><linearGradient id="linearGradient6787" y2="83.688" xlink:href="#linearGradient5568" gradientUnits="userSpaceOnUse" x2="-187.45" gradientTransform="matrix(1.25 0 0 1.25 587.6 535.63)" y1="83.688" x1="-213.25" inkscape:collect="always"></linearGradient><linearGradient id="linearGradient6790" y2="99.07" xlink:href="#linearGradient5568" spreadMethod="repeat" gradientUnits="userSpaceOnUse" x2="-140.33" gradientTransform="matrix(-.84492 0 0 .73181 226.92 564.73)" y1="103.18" x1="-138.27" inkscape:collect="always"></linearGradient><linearGradient id="linearGradient6796" y2="152.12" xlink:href="#linearGradient5333" gradientUnits="userSpaceOnUse" x2="-73.093" gradientTransform="matrix(1.1944 0 0 1.0851 425.5 540.04)" y1="152.12" x1="-76.034" inkscape:collect="always"></linearGradient><linearGradient id="linearGradient6800" y2="122.44" xlink:href="#linearGradient5333" gradientUnits="userSpaceOnUse" x2="-92.831" gradientTransform="matrix(1.0321 0 0 .87950 413.54 571.27)" y1="117.59" x1="-49.109" inkscape:collect="always"></linearGradient><linearGradient id="linearGradient6807" y2="-63.258" xlink:href="#linearGradient5333" gradientUnits="userSpaceOnUse" x2="-238.74" gradientTransform="matrix(-1.2441 .10473 .0060727 -.32185 61.685 402.35)" y1="-93.167" x1="-209.69" inkscape:collect="always"></linearGradient></defs><defs id="svg_document_defs"><filter id="dropShadowFilter" width="200%" height="200%"><feOffset result="offOut" in="SourceGraphic" dy="10" dx="10"></feOffset><feColorMatrix result="matrixOut" in="offOut" type="matrix" values="0.2 0 0 0 0 0 0.2 0 0 0 0 0 0.2 0 0 0 0 0 1 0"></feColorMatrix><feGaussianBlur result="blurOut" in="matrixOut" stdDeviation="10"></feGaussianBlur><feBlend in="SourceGraphic" in2="blurOut" mode="normal"></feBlend></filter><filter height="200%" x="-40%" y="-40%" id="dropShadowFilter2" width="200%" overflow="visible"><feOffset result="offOut" id="feOffset1" dy="-10" in="SourceGraphic" dx="-6"></feOffset><feColorMatrix result="matrixOut" in="offOut" type="matrix" values="0.2 0 0 0 0 0 0.2 0 0 0 0 0 0.2 0 0 0 0 0 1 0" id="feColorMatrix1"></feColorMatrix><feGaussianBlur result="blurOut" in="matrixOut" stdDeviation="10" id="feGaussianBlur1"></feGaussianBlur><feBlend in="SourceGraphic" in2="blurOut" mode="normal" id="feBlend1"></feBlend></filter></defs><defs id="defs1"><filter id="i1"><feGaussianBlur in="SourceAlpha" stdDeviation="8" result="blur1"></feGaussianBlur><feSpecularLighting result="specOut" in="blur1" surfaceScale="1" specularConstant="0.125" lighting-color="#ffffff" specularExponent="2"><feSpotLight x="100" y="64" pointsAtY="92" z="100" pointsAtZ="0" limitingConeAngle="65" pointsAtX="119"></feSpotLight></feSpecularLighting><feComposite in="SourceGraphic" k3="1" in2="specOut" operator="arithmetic" k4="0" k1="0" k2="1"></feComposite></filter><filter id="i2"><feGaussianBlur result="blur1" id="feGaussianBlur2" in="SourceAlpha" stdDeviation="8"></feGaussianBlur><feSpecularLighting result="specOut" in="blur1" specularConstant="0.1" id="feSpecularLighting1" surfaceScale="1" lighting-color="#202020" specularExponent="128"><feSpotLight x="100" y="50" id="feSpotLight1" pointsAtY="50" z="200" pointsAtZ="0" limitingConeAngle="32" pointsAtX="50"></feSpotLight></feSpecularLighting><feComposite in="SourceGraphic" k3="1" in2="specOut" operator="arithmetic" k4="0" k1="0" k2="1" id="feComposite1"></feComposite></filter></defs><g id="g2" transform=""><g id="main_group"><rect x="0px" height="512px" id="background_rect" y="0px" width="512px" fill="#90ee90" visibility="hidden"></rect></g><g id="g3" filter="url(#dropShadowFilter)" transform=""><polygon points="81.872009,33.027702 373.249146,59.940487 357.047607,456.285706 36.039841,424.679871" filter="url(#i1)" stroke="white" id="paper" stroke-width="10px" fill="dodgerblue" transform="rotate(-9 250 250)"></polygon></g><g id="star" transform="translate(103 125) scale(0.75 0.75) rotate(-9 150 150)"><g stroke-width="38.0086" stroke="#000" id="g1" visibility="visible"><g id="svgstar" transform="translate(150, 150)"><path d="M-84.1487,-15.8513 a22.4171,22.4171 0 1 0 0,31.7026 h168.2974 a22.4171,22.4171 0 1 0 0,-31.7026 Z" id="svgbar" fill="#ffb13b"></path><use xlink:href="#svgbar" transform="rotate(45)"></use><use xlink:href="#svgbar" transform="rotate(90)"></use><use xlink:href="#svgbar" transform="rotate(135)"></use></g></g><use xlink:href="#svgstar" id="use1" visibility="visible"></use></g><g id="pencil" overflow="visible" transform="translate(359 235) scale(0.6 0.6) rotate(139.990967 17.759979 198.300049)"><g id="layer1" inkscape:label="Layer 1" inkscape:groupmode="layer" filter="url(#dropShadowFilter2)" transform="translate(-318.6 -313.95)"><g id="g6809"><rect id="rect5507" style="stroke-linejoin:round;stroke:#000000;stroke-linecap:round;stroke-width:.89144;fill:#000000" height="7.8149" width=".97992" y="702.51" x="336.79"></rect><path id="path5511" style="fill:url(#linearGradient6800)" d="m323.01 659.78l13.57 43.4v3.48h1.55v-3.48l13.57-43.4h-28.69z"></path><path id="path5513" sodipodi:rx="15.09903" sodipodi:ry="8.3883495" style="fill:url(#linearGradient5532)" sodipodi:type="arc" d="m-55.922 95.348a15.099 8.3883 0 1 1 -30.198 0 15.099 8.3883 0 1 1 30.198 0z" transform="matrix(.93269 0 0 .80784 403.6 582.2)" sodipodi:cy="95.347572" sodipodi:cx="-71.021362"></path><rect id="rect5515" style="fill:url(#linearGradient6796)" height="6.4725" width="2.2265" y="701.86" x="336.22"></rect><path id="path5546" style="color:#000000;fill:url(#linearGradient6781)" d="m321.04 613.57v47.53h0.88c1.74 3.33 7.97 5.81 15.43 5.81s13.7-2.48 15.44-5.81h0.41v-1c0.07-0.29 0.09-0.58 0.09-0.88 0-0.29-0.02-0.58-0.09-0.87v-44.78h-32.16z"></path><path id="path5580" style="opacity:.39490;color:#000000;fill:url(#linearGradient6790)" d="m353.29 613.57v47.53h-0.87c-1.74 3.33-7.98 5.81-15.44 5.81s-13.7-2.48-15.44-5.81h-0.4v-1c-0.07-0.29-0.1-0.58-0.1-0.88 0-0.29 0.03-0.58 0.1-0.87v-44.78h32.15z"></path><path id="path5594" style="opacity:.77433;color:#000000;fill:url(#linearGradient6787)" d="m353.29 613.57v47.53h-0.87c-1.74 3.33-7.98 5.81-15.44 5.81s-13.7-2.48-15.44-5.81h-0.4v-1c-0.07-0.29-0.1-0.58-0.1-0.88 0-0.29 0.03-0.58 0.1-0.87v-44.78h32.15z"></path><path id="path5584" style="opacity:.46497;color:#000000;stroke:#ffffff;stroke-width:1.1039;fill:url(#linearGradient6784)" d="m353.38 613.57v47.53h-0.88c-1.74 3.33-7.98 5.81-15.44 5.81s-13.69-2.48-15.43-5.81h-0.41v-1c-0.07-0.29-0.09-0.58-0.09-0.88 0-0.29 0.02-0.58 0.09-0.87v-44.78h32.16z"></path><path id="path5602" style="opacity:.050955;color:#000000;fill:url(#linearGradient6781)" d="m321.04 613.57v47.53h0.88c1.74 3.33 7.97 5.81 15.43 5.81s13.7-2.48 15.44-5.81h0.41v-1c0.07-0.29 0.09-0.58 0.09-0.88 0-0.29-0.02-0.58-0.09-0.87v-44.78h-32.16z"></path><path id="path5551" style="color:#000000;stroke:#ffffff;stroke-width:1.1039;fill:url(#linearGradient6778)" d="m353.3 614.23c0 4.23-7.14 7.67-15.95 7.67-8.8 0-15.94-3.44-15.94-7.67 0-4.24 7.14-7.68 15.94-7.68 8.81 0 15.95 3.44 15.95 7.68z"></path><path id="path5606" style="color:#000000;fill:url(#linearGradient6775)" d="m321.71 362.22v249.53 0.07c0.07 4.2 7.18 7.59 15.94 7.59 8.8 0 15.97-3.42 15.97-7.66 0-0.17-0.04-0.36-0.06-0.53v-249h-31.85z"></path><path id="path5620" style="opacity:.62420;color:#000000;fill:#0f32ff" d="m321.29 361.21v249.53 0.07c0.07 4.2 7.18 7.59 15.94 7.59 8.8 0 15.97-3.42 15.97-7.66 0-0.17-0.04-0.36-0.07-0.53v-249h-31.84z"></path><path id="path5648" style="color:#000000;fill:url(#linearGradient6771)" d="m319.65 377.27v25.18c0.01 0.06 0.23 0.15 0.56 0.2-0.37 0.69-0.59 1.39-0.59 2.12 0 4.71 7.96 8.54 17.74 8.54s17.71-3.83 17.71-8.54c0-0.74-0.22-1.43-0.59-2.12 0.3-0.05 0.49-0.14 0.49-0.2 0-0.02-0.05-0.02-0.07-0.04v-24.3c-1.14 4.18-8.54 7.43-17.54 7.43-9.58 0-17.4-3.69-17.71-8.27z"></path><path id="path5624" style="color:#000000;stroke:#ffffff;stroke-width:1.1039;fill:url(#linearGradient6768)" d="m353.02 362.39c0 4.23-7.14 7.67-15.95 7.67-8.8 0-15.94-3.44-15.94-7.67 0-4.24 7.14-7.68 15.94-7.68 8.81 0 15.95 3.44 15.95 7.68z"></path><g id="g5705" transform="matrix(1.25 0 0 1.25 714.83 626.5)"><path id="path5652" style="color:#000000;fill:url(#linearGradient5719)" transform="scale(.8)" d="m-390.41-291.75v23.28 0.03c0.02 0.12 0.67 0.22 1.6 0.32-0.82 0.78-1.28 1.68-1.28 2.62 0 3.23 5.44 5.84 12.15 5.84 6.72 0 12.16-2.61 12.16-5.84 0-0.96-0.49-1.89-1.34-2.69 0.65-0.09 1.06-0.18 1.06-0.28 0-0.01-0.05-0.01-0.06-0.03v-23.25h-24.29z"></path><path id="path5654" style="stroke-width:.67358;color:#000000;stroke:#ffffff;fill:url(#linearGradient5721)" d="m-293.15-233.95c0 2.59-4.36 4.69-9.73 4.69s-9.73-2.1-9.73-4.69c0-2.58 4.36-4.68 9.73-4.68s9.73 2.1 9.73 4.68z"></path></g><path id="path5709" style="color:#000000;stroke:#ffffff;stroke-width:.59924;fill:url(#linearGradient6762)" d="m345.08 332.73c0 2.3-3.88 4.16-8.66 4.16s-8.66-1.86-8.66-4.16 3.88-4.17 8.66-4.17 8.66 1.87 8.66 4.17z"></path><g id="g5711" transform="matrix(.67856 0 0 .67856 541.48 476.1)"><path id="path5713" style="color:#000000;fill:url(#linearGradient5719)" transform="scale(.8)" d="m-390.41-291.75v23.28 0.03c0.02 0.12 0.67 0.22 1.6 0.32-0.82 0.78-1.28 1.68-1.28 2.62 0 3.23 5.44 5.84 12.15 5.84 6.72 0 12.16-2.61 12.16-5.84 0-0.96-0.49-1.89-1.34-2.69 0.65-0.09 1.06-0.18 1.06-0.28 0-0.01-0.05-0.01-0.06-0.03v-23.25h-24.29z"></path><path id="path5715" style="color:#000000;stroke:#ffffff;stroke-width:.67358;fill:url(#linearGradient5721)" d="m-293.15-233.95c0 2.59-4.36 4.69-9.73 4.69s-9.73-2.1-9.73-4.69c0-2.58 4.36-4.68 9.73-4.68s9.73 2.1 9.73 4.68z"></path></g><path id="path5829" sodipodi:nodetypes="cccssccc" style="color:#000000;fill:url(#linearGradient6756)" d="m319.93 397.43l-2.27 76.13v0.02c-0.01 1.26 2.08 2.26 4.7 2.25s4.79-1.04 4.82-2.3c0.01-0.05-0.01-0.11-0.01-0.16l1.84-74.7-9.08-1.24z"></path><path id="path6803" sodipodi:nodetypes="cccssccc" style="color:#000000;fill:url(#linearGradient6756)" d="m319.93 397.43l-2.27 76.13v0.02c-0.01 1.26 2.08 2.26 4.7 2.25s4.79-1.04 4.82-2.3c0.01-0.05-0.01-0.11-0.01-0.16l1.84-74.7-9.08-1.24z"></path><path id="path6805" sodipodi:nodetypes="cccssccc" style="color:#000000;fill:url(#linearGradient6807)" d="m328.47 415.43l0.42-18.48-0.4-1.38c-0.55-0.02-4.76-1.4-7.36-1.18-2.62 0.22-1.44 1.88-1.5 2.2-0.35 1.6-0.25 2.57-0.24 2.58v16.7l9.08-0.44z"></path></g></g></g></g></svg>