<?xml version="1.0" encoding="utf-8" standalone="yes"?>
<!DOCTYPE svg PUBLIC "-//W3C//DTD SVG 1.1//EN" "http://www.w3.org/Graphics/SVG/1.1/DTD/svg11.dtd">
<svg xmlns="http://www.w3.org/2000/svg" xmlns:xlink="http://www.w3.org/1999/xlink" xmlns:dc="http://purl.org/dc/elements/1.1/" xmlns:cc="http://web.resource.org/cc/" xmlns:rdf="http://www.w3.org/1999/02/22-rdf-syntax-ns#" xmlns:sodipodi="http://sodipodi.sourceforge.net/DTD/sodipodi-0.dtd" xmlns:inkscape="http://www.inkscape.org/namespaces/inkscape" version="1.1" baseProfile="full" width="640px" height="744px" viewBox="0 0 640 744" preserveAspectRatio="none" id="svg_document" style="zoom: 1;"><title id="svg_document_title">Untitled.svg</title><defs id="svg_document_defs"><linearGradient id="linearGradient1" x1="0%" y1="0%" x2="0%" y2="100%"><stop id="stop1" offset="0%" stop-color="#f0dd9a"></stop><stop id="stop2" offset="100%" stop-color="goldenrod"></stop></linearGradient><linearGradient id="linearGradient2" x1="0%" y1="0%" x2="0%" y2="100%"><stop id="stop3" offset="0%" stop-color="white"></stop><stop id="stop4" offset="100%" stop-color="dimgray"></stop></linearGradient><radialGradient id="radialGradient1" cx="50%" cy="50%" fx="50%" fy="100%" r="50%"><stop id="stop5" offset="0%" stop-color="white"></stop><stop id="stop8" stop-color="gray" offset="50%"></stop><stop id="stop7" stop-color="darkgray" offset="80%"></stop><stop id="stop6" offset="100%" stop-color="black"></stop></radialGradient></defs><g id="main_group"><rect height="744px" x="0px" y="0px" id="background_rect" width="640px" fill="lightgreen" visibility="visible"></rect><text id="sample_text_element" x="200px" y="320px" font-family="Helvetica" font-size="30px" fill="black" xml:space="preserve" text-anchor="middle" transform="" style="outline-style:none;" visibility="hidden">Sample Text Element</text></g><g id="folder_icon" visibility="hidden"><image x="0.03125px" height="16px" y="0.03125px" id="image1" xlink:href="file:///Users/dsward/Documents/ArkPhone_LLC_Projects/SVG_Composer_Project%20StdWebKit/SVG%20Composer/Resources/Outline%20Icons/folder.png" width="16px" transform="" visibility="hidden"></image><path stroke="black" id="path1" stroke-width="0.25px" d="M1.15625,2.1875 L1.15625,0.9375 L1.71875,0.1875 L5.40625,0.21875 L5.84375,0.9375 L5.84375,2.1875 L1.1875,2.1875" fill="url(#linearGradient1)" transform="" visibility="hidden"></path><rect stroke="black" x="0.157px" height="11.75px" y="2.2px" id="rect1" stroke-width="0.25px" width="15.062px" fill="url(#linearGradient1)" transform="" visibility="hidden"></rect></g><g id="padlock_icon" visibility="hidden"><path stroke="dimgray" visibility="visible" id="path4" stroke-width="0.25px" d="M5.5625,7.9375 L2.25,9.75 L16.8125,9.8125 L13.3125,7.9375 L5.5625,7.9375 " fill="url(#linearGradient2)" transform=""></path><path stroke="dimgray" id="path3" stroke-width="1px" d="M16.6875,10.1875 L16.5,4.6875 L12.5,0.625 L6.0625,0.5625 L2.1875,4.5625 L2.1875,10.25 L6.25,10.25 L6.25,4.5 L12.25,4.5625 L12.25,10.3125 L16.6875,10.3125" fill="url(#linearGradient2)" transform=""></path><path stroke="dimgray" id="path2" stroke-width="1px" d="M0.5625,11.875 L0.625,23.3125 L1.875,24.5 L17.375,24.5 L18.5625,23.25 L18.5,11.625 L17,10.25 L1.9375,10.1875 L0.5625,11.875" fill="url(#linearGradient2)" transform=""></path><path stroke="dimgray" id="path5" stroke-width="2px" d="M4.75,14.0625 L16.375,14.0625" fill="none" transform=""></path><path stroke="dimgray" stroke-width="2px" id="path6" d="M4.6875,17.6875 L16.3125,17.6875" fill="none" transform=""></path><path stroke="dimgray" stroke-width="2px" id="path7" d="M4.6875,21.125 L16.3125,21.125" fill="none" transform=""></path><image x="-9.4375px" height="16px" y="-5.5625px" id="image3" xlink:href="file:///Users/dsward/Documents/ArkPhone_LLC_Projects/SVG_Composer_Project%20StdWebKit/SVG%20Composer/Resources/Outline%20Icons/padlock.png" width="16px" transform="scale(2 2)" visibility="hidden"></image></g><g id="visible_eye_icon" visibility="visible"><path d="M508.917969,147.117004 C482.266968,103.529999 446.432983,68.507996 401.42099,42.052002 C356.406006,15.595001 308.871979,2.365005 258.812988,2.365005 C208.753998,2.365005 161.217987,15.589996 116.202988,42.052002 C71.186996,68.507996 35.354996,103.529999 8.708,147.117004 C4.903,153.778015 3,160.345001 3,166.817993 C3,173.290985 4.903,179.858002 8.708,186.516998 C35.354996,230.105988 71.186996,265.130981 116.203003,291.580994 C161.218002,318.040985 208.753998,331.260986 258.812988,331.260986 C308.873016,331.260986 356.407013,318.084991 401.421021,291.724976 C446.433014,265.364014 482.27301,230.292999 508.91803,186.516998 C512.723999,179.858002 514.625977,173.294006 514.625977,166.817993 C514.625977,160.345001 512.723999,153.778015 508.917969,147.117004  z M197.567993,69.029999 C214.60199,51.996002 235.014984,43.475998 258.809998,43.475998 C262.61499,43.475998 265.852997,44.811996 268.518982,47.474991 C271.180969,50.138992 272.518982,53.375992 272.518982,57.181992 C272.518982,60.990997 271.180969,64.225998 268.524994,66.885986 C265.863007,69.553009 262.622986,70.884995 258.816986,70.884995 C242.448975,70.884995 228.454987,76.692993 216.845978,88.300995 C205.232971,99.916 199.429993,113.903992 199.429993,130.272003 C199.429993,134.083008 198.093994,137.31601 195.431,139.981995 C192.763992,142.649994 189.529999,143.980988 185.723999,143.980988 C181.914993,143.981018 178.679993,142.647003 176.013992,139.981995 C173.346985,137.315979 172.014999,134.078979 172.014999,130.271973 C172.014999,106.481995 180.535004,86.065002 197.567993,69.029999  z M382.867004,260.040009 C344.703003,283.160004 303.352997,294.72702 258.812988,294.72702 C214.273987,294.72702 172.924011,283.167023 134.761993,260.040009 S64.860992,205.839996 39.546997,166.817993 C68.478004,121.897003 104.737,88.300018 148.324005,66.035004 C136.714005,85.826996 130.907013,107.242004 130.907013,130.270996 C130.907013,165.487 143.424011,195.600006 168.451004,220.632996 S223.60199,258.177002 258.812988,258.177002 C294.027008,258.177002 324.141998,245.658997 349.174988,220.632996 S386.719971,165.487 386.719971,130.270996 C386.720001,107.242004 380.911987,85.824005 369.300995,66.035004 C412.885986,88.300003 449.147003,121.900024 478.077026,166.817993 C452.766998,205.839996 421.031006,236.912994 382.867004,260.040009  z " id="prototype_to_delete" visibility="hidden"></path><path d="M510.917969,150.117004 C484.266968,106.529999 448.432983,71.507996 403.42099,45.052002 C358.406006,18.595001 310.871979,5.365005 260.812988,5.365005 C210.753998,5.365005 163.217987,18.589996 118.202988,45.052002 C73.186996,71.507996 37.354996,106.529999 10.708,150.117004 C6.903,156.778015 5,163.345001 5,169.817993 C5,176.290985 6.903,182.858002 10.708,189.516998 C37.354996,233.105988 73.186996,268.130981 118.203003,294.580994 C163.218002,321.040985 210.753998,334.260986 260.812988,334.260986 C310.873016,334.260986 358.407013,321.084991 403.421021,294.724976 C448.432983,268.364014 484.27301,233.292999 510.91803,189.516998 C514.723999,182.858002 516.625977,176.294006 516.625977,169.817993 C516.625977,163.345001 514.723999,156.778015 510.917969,150.117004  z M199.567993,72.029999 C216.60199,54.996002 237.014984,46.475998 260.809998,46.475998 C264.61499,46.475998 267.852997,47.811996 270.518982,50.474991 C273.180969,53.138992 274.518982,56.375992 274.518982,60.181992 C274.518982,63.990997 273.180969,67.225998 270.524994,69.885986 C267.863007,72.553009 264.622986,73.884995 260.816986,73.884995 C244.448975,73.884995 230.454987,79.692993 218.845978,91.300995 C207.232971,102.916 201.429993,116.903992 201.429993,133.272003 C201.429993,137.083008 200.093994,140.31601 197.431,142.981995 C194.763977,145.649994 191.529999,146.980988 187.723999,146.980988 C183.914993,146.981018 180.679993,145.647003 178.013992,142.981995 C175.346985,140.315979 174.014999,137.078979 174.014999,133.271973 C174.014999,109.481995 182.535004,89.065002 199.567993,72.029999  z M384.867004,263.040009 C346.703003,286.160004 305.352997,297.72702 260.812988,297.72702 C216.273987,297.72702 174.924011,286.167023 136.761993,263.040009 S66.860992,208.839996 41.546997,169.817993 C70.477997,124.897003 106.737,91.300018 150.324005,69.035004 C138.714005,88.826996 132.907013,110.242004 132.907013,133.270996 C132.907013,168.487 145.424011,198.600006 170.451004,223.632996 S225.60199,261.177002 260.812988,261.177002 C296.027008,261.177002 326.141998,248.658997 351.174988,223.632996 S388.719971,168.487 388.719971,133.270996 C388.720001,110.242004 382.911987,88.824005 371.300995,69.035004 C414.885986,91.300003 451.146973,124.900024 480.077026,169.817993 C454.766968,208.839996 423.031006,239.912994 384.867004,263.040009  z " id="path9" visibility="hidden" fill="crimson"></path><path stroke="#000000" transform="" id="path8" stroke-width="3px" d="M5,169 C4,205 78,268.5 104,285.5 C130,302.5 180,333 267.5,333 C355,333 406,296 433,274.5 C460,253 516.5,193 517,170.5 C517.5,148 454.5,75 420,54 C385.5,33 341,4.5 262.5,5 C184,5.5 118,43 94,61 C70,79 6,133 5,169 " fill="black" visibility="visible"></path><path stroke="#000000" id="path10" stroke-width="3px" d="M149.5,69.5 C149.5,69.5 103,97 85,116 C67,135 41,169.5 41,169.5 C41,169.5 84,228.5 110.5,246.5 C137,264.5 173,295.5 263.5,296.5 C354,297.5 395.5,257.5 420,239 C444.5,220.5 480.5,171 480.5,171 C480.5,171 452.5,131.5 433,112 C413.5,92.5 372.5,70 372.5,70 C372.5,70 388.5,104.5 388,145 C387.5,185.5 341,261.5 262.5,260.5 C184,259.5 134,189.5 132.5,143.5 C131,97.5 150,69.5 150,69.5 " fill="white" transform=""></path><path stroke="#000000" visibility="visible" id="path12" stroke-width="3px" d="M258,47 A11,11 0 0 1 259,74 A55,55 0 0 0 202,134 A11,11 0 0 1 173,130 A85,85 0 0 1 258,47 " fill="white" transform=""></path></g><g id="target_icon" visibility="hidden"><circle stroke="none" id="circle1" cy="100px" stroke-width="0px" fill="red" r="100px" cx="100px" transform=""></circle><circle stroke="none" stroke-width="0px" cy="100px" id="circle2" fill="white" r="75px" cx="100px" transform=""></circle><circle stroke="none" stroke-width="0px" cy="100px" fill="red" r="50px" cx="100px" transform="" id="circle3"></circle><circle stroke="none" stroke-width="0px" cy="100px" fill="white" r="25px" cx="100px" transform="" id="circle4"></circle></g></svg>