<?xml version="1.0" encoding="UTF-8" standalone="no"?>
<svg
   xmlns:dc="http://purl.org/dc/elements/1.1/"
   xmlns:cc="http://creativecommons.org/ns#"
   xmlns:rdf="http://www.w3.org/1999/02/22-rdf-syntax-ns#"
   xmlns:svg="http://www.w3.org/2000/svg"
   xmlns="http://www.w3.org/2000/svg"
   width="175"
   height="50"
   viewBox="0 0 175 50"
   id="svg2"
   version="1.1">
  <defs
     id="defs4" />
  <metadata
     id="metadata7">
    <rdf:RDF>
      <cc:Work
         rdf:about="">
        <dc:format>image/svg+xml</dc:format>
        <dc:type
           rdf:resource="http://purl.org/dc/dcmitype/StillImage" />
        <dc:title></dc:title>
      </cc:Work>
    </rdf:RDF>
  </metadata>
  <path
     d="M 1.3690775,30.241936 L 7.0722025,30.241936 L 7.0722025,17.312248 C 7.0722025,14.870842 8.6347025,13.152092 10.880796,13.152092 C 13.087828,13.152092 14.415953,14.538811 14.415953,16.843498 L 14.415953,30.241936 L 19.923765,30.241936 L 19.923765,17.234123 C 19.923765,14.792717 21.427671,13.152092 23.673765,13.152092 C 25.997984,13.152092 27.267515,14.538811 27.267515,17.058342 L 27.267515,30.241936 L 32.97064,30.241936 L 32.97064,15.632561 C 32.97064,11.296623 30.138609,8.4255295 25.919859,8.4255295 C 22.794859,8.4255295 20.216734,10.124748 19.240171,12.820061 L 19.122984,12.820061 C 18.400328,10.007561 16.212828,8.4255295 13.12689,8.4255295 C 10.255796,8.4255295 7.9120463,10.046623 6.9940775,12.644279 L 6.87689,12.644279 L 6.87689,8.7380295 L 1.3690775,8.7380295 L 1.3690775,30.241936 Z"
     style="font-style:normal;font-variant:normal;font-weight:bold;font-stretch:normal;font-size:medium;line-height:125%;font-family:'System Font';-inkscape-font-specification:'System Font, Bold';text-align:start;letter-spacing:0px;word-spacing:0px;writing-mode:lr-tb;text-anchor:start;fill:#000000;fill-opacity:1;stroke:none;stroke-width:1px;stroke-linecap:butt;stroke-linejoin:miter;stroke-opacity:1"
     id="path4216" />
  <path
     d="M 45.060484,26.335686 C 42.990171,26.335686 41.642515,25.339592 41.642515,23.757561 C 41.642515,22.175529 42.912046,21.238029 45.294859,21.081779 L 49.806578,20.769279 L 49.806578,22.351311 C 49.806578,24.695061 47.697203,26.335686 45.060484,26.335686 Z M 43.205015,30.495842 C 45.958921,30.495842 48.615171,29.167717 49.787046,26.921623 L 49.904234,26.921623 L 49.904234,30.241936 L 55.412046,30.241936 L 55.412046,15.495842 C 55.412046,11.198967 51.798765,8.3669357 46.271421,8.3669357 C 40.900328,8.3669357 37.18939,11.198967 37.03314,15.300529 L 42.247984,15.300529 C 42.521421,13.738029 43.966734,12.644279 46.037046,12.644279 C 48.380796,12.644279 49.806578,13.777092 49.806578,15.847404 L 49.806578,17.273186 L 44.435484,17.605217 C 38.947203,17.937248 35.958921,20.144279 35.958921,24.050529 C 35.958921,27.898186 39.06439,30.495842 43.205015,30.495842 Z"
     style="font-style:normal;font-variant:normal;font-weight:bold;font-stretch:normal;font-size:medium;line-height:125%;font-family:'System Font';-inkscape-font-specification:'System Font, Bold';text-align:start;letter-spacing:0px;word-spacing:0px;writing-mode:lr-tb;text-anchor:start;fill:#000000;fill-opacity:1;stroke:none;stroke-width:1px;stroke-linecap:butt;stroke-linejoin:miter;stroke-opacity:1"
     id="path4218" />
  <path
     d="M 78.615171,16.667717 C 78.341734,11.882561 74.650328,8.3669357 68.869078,8.3669357 C 62.482359,8.3669357 58.380796,12.663811 58.380796,19.480217 C 58.380796,26.394279 62.482359,30.613029 68.90814,30.613029 C 74.552671,30.613029 78.302671,27.429436 78.634703,22.429436 L 73.322203,22.429436 C 72.951109,24.792717 71.369078,26.101311 68.966734,26.101311 C 66.017515,26.101311 64.162046,23.679436 64.162046,19.480217 C 64.162046,15.359123 66.017515,12.859123 68.947203,12.859123 C 71.427671,12.859123 72.990171,14.441154 73.302671,16.667717 L 78.615171,16.667717 Z"
     style="font-style:normal;font-variant:normal;font-weight:bold;font-stretch:normal;font-size:medium;line-height:125%;font-family:'System Font';-inkscape-font-specification:'System Font, Bold';text-align:start;letter-spacing:0px;word-spacing:0px;writing-mode:lr-tb;text-anchor:start;fill:#000000;fill-opacity:1;stroke:none;stroke-width:1px;stroke-linecap:butt;stroke-linejoin:miter;stroke-opacity:1"
     id="path4220" />
  <path
     d="M 80.802671,22.214592 C 80.978453,27.507561 85.294859,30.730217 92.072203,30.730217 C 99.06439,30.730217 103.49798,27.273186 103.49798,21.804436 C 103.49798,17.507561 101.03705,15.085686 95.392515,13.874748 L 91.974546,13.152092 C 88.732359,12.409904 87.365171,11.433342 87.365171,9.6950607 C 87.365171,7.605217 89.318296,6.2184982 92.228453,6.2184982 C 95.177671,6.2184982 97.267515,7.6638107 97.462828,10.046623 L 102.99017,10.046623 C 102.89252,4.948967 98.771421,1.5700607 92.208921,1.5700607 C 85.919859,1.5700607 81.427671,5.0075607 81.427671,10.202873 C 81.427671,14.323967 83.986265,16.960686 89.181578,18.073967 L 92.853453,18.874748 C 96.25189,19.636467 97.599546,20.652092 97.599546,22.488029 C 97.599546,24.558342 95.451109,26.062248 92.306578,26.062248 C 89.181578,26.062248 86.759703,24.538811 86.486265,22.214592 L 80.802671,22.214592 Z"
     style="font-style:normal;font-variant:normal;font-weight:bold;font-stretch:normal;font-size:medium;line-height:125%;font-family:'System Font';-inkscape-font-specification:'System Font, Bold';text-align:start;letter-spacing:0px;word-spacing:0px;writing-mode:lr-tb;text-anchor:start;fill:#000000;fill-opacity:1;stroke:none;stroke-width:1px;stroke-linecap:butt;stroke-linejoin:miter;stroke-opacity:1"
     id="path4222" />
  <path
     d="M 121.56439,30.241936 L 131.03705,2.058342 L 124.61127,2.058342 L 118.16595,24.167717 L 118.02923,24.167717 L 111.58392,2.058342 L 104.98236,2.058342 L 114.45502,30.241936 L 121.56439,30.241936 Z"
     style="font-style:normal;font-variant:normal;font-weight:bold;font-stretch:normal;font-size:medium;line-height:125%;font-family:'System Font';-inkscape-font-specification:'System Font, Bold';text-align:start;letter-spacing:0px;word-spacing:0px;writing-mode:lr-tb;text-anchor:start;fill:#000000;fill-opacity:1;stroke:none;stroke-width:1px;stroke-linecap:butt;stroke-linejoin:miter;stroke-opacity:1"
     id="path4224" />
  <path
     d="M 158.6933,18.405998 L 158.6933,15.222404 L 146.8183,15.222404 L 146.8183,19.519279 L 152.95111,19.519279 L 152.93158,19.968498 C 152.81439,23.464592 150.13861,25.827873 146.29095,25.827873 C 141.60345,25.827873 138.6347,22.097404 138.6347,15.984123 C 138.6347,9.9880295 141.42767,6.4528732 146.07611,6.4528732 C 149.2597,6.4528732 151.66205,8.2106857 152.52142,11.159904 L 158.43939,11.159904 C 157.59955,5.4567795 152.63861,1.5700607 146.05658,1.5700607 C 137.77533,1.5700607 132.61908,7.0388107 132.61908,16.062248 C 132.61908,25.222404 137.77533,30.730217 146.1933,30.730217 C 154.04486,30.730217 158.6933,26.081779 158.6933,18.405998 Z"
     style="font-style:normal;font-variant:normal;font-weight:bold;font-stretch:normal;font-size:medium;line-height:125%;font-family:'System Font';-inkscape-font-specification:'System Font, Bold';text-align:start;letter-spacing:0px;word-spacing:0px;writing-mode:lr-tb;text-anchor:start;fill:#000000;fill-opacity:1;stroke:none;stroke-width:1px;stroke-linecap:butt;stroke-linejoin:miter;stroke-opacity:1"
     id="path4226" />
</svg>
