<?xml version="1.0" encoding="utf-8" standalone="yes"?>
<!DOCTYPE svg PUBLIC "-//W3C//DTD SVG 1.1//EN" "http://www.w3.org/Graphics/SVG/1.1/DTD/svg11.dtd">
<svg xmlns="http://www.w3.org/2000/svg" xmlns:xlink="http://www.w3.org/1999/xlink" xmlns:dc="http://purl.org/dc/elements/1.1/" xmlns:cc="http://web.resource.org/cc/" xmlns:rdf="http://www.w3.org/1999/02/22-rdf-syntax-ns#" xmlns:sodipodi="http://sodipodi.sourceforge.net/DTD/sodipodi-0.dtd" xmlns:inkscape="http://www.inkscape.org/namespaces/inkscape" version="1.1" baseProfile="full" width="660px" height="105px" viewBox="0 0 220 35" preserveAspectRatio="midXMidY meet" id="svg_document" style="zoom: 1;"><title id="svg_document_title">macsvg-logo-animation.svg</title><defs id="svg_document_defs"></defs><g id="main_group"><rect height="35px" x="0px" y="0px" id="background_rect" width="220px" fill="white"></rect><g id="g2" transform=""><path stroke="black" id="circle_G" stroke-width="0" d="M189.393402,27.606598 C191.067062,29.280273 192.811707,30.376495 195.045807,31.158249 C197.279922,31.940002 199.327408,32.1707 201.679474,31.905685 C204.031525,31.640671 205.976349,30.960144 207.980484,29.700867 C209.984619,28.441574 211.441574,26.984619 212.700867,24.980484 C213.960144,22.976349 214.640671,21.031525 214.905685,18.679474 C215.1707,16.327408 214.940002,14.279923 214.158249,12.045808 C213.376495,9.811707 212.280273,8.067063 210.606598,6.393403 C208.932922,4.719712 207.188293,3.623505 204.954178,2.841751 C202.720078,2.059998 200.672592,1.829315 198.320526,2.094315 C195.968475,2.359329 194.023651,3.039856 192.019516,4.299133 C190.015381,5.558425 188.558426,7.01538 187.299133,9.019515 C186.039856,11.023665 185.359329,12.968474 185.094315,15.320525 C184.8293,17.672592 185.059998,19.720078 185.841751,21.954193 C186.623505,24.188293 187.719727,25.932938 189.393402,27.606598 Z" fill="yellow" opacity="0"><animate values="M189.393402,27.606598 C191.067062,29.280273 192.811707,30.376495 195.045807,31.158249 C197.279922,31.940002 199.327408,32.1707 201.679474,31.905685 C204.031525,31.640671 205.976349,30.960144 207.980484,29.700867 C209.984619,28.441574 211.441574,26.984619 212.700867,24.980484 C213.960144,22.976349 214.640671,21.031525 214.905685,18.679474 C215.1707,16.327408 214.940002,14.279923 214.158249,12.045808 C213.376495,9.811707 212.280273,8.067063 210.606598,6.393403 C208.932922,4.719712 207.188293,3.623505 204.954178,2.841751 C202.720078,2.059998 200.672592,1.829315 198.320526,2.094315 C195.968475,2.359329 194.023651,3.039856 192.019516,4.299133 C190.015381,5.558425 188.558426,7.01538 187.299133,9.019515 C186.039856,11.023665 185.359329,12.968474 185.094315,15.320525 C184.8293,17.672592 185.059998,19.720078 185.841751,21.954193 C186.623505,24.188293 187.719727,25.932938 189.393402,27.606598 Z;M158.6933,18.405998 C158.6933,15.222404 158.6933,15.222404 158.6933,15.222404 C146.8183,15.222404 146.8183,15.222404 146.8183,15.222404 C146.8183,19.519279 146.8183,19.519279 146.8183,19.519279 C152.95111,19.519279 152.95111,19.519279 152.95111,19.519279 C152.93158,19.968498 152.93158,19.968498 152.93158,19.968498 C152.81439,23.464592 150.13861,25.827873 146.29095,25.827873 C141.60345,25.827873 138.6347,22.097404 138.6347,15.984123 C138.6347,9.9880295 141.42767,6.4528732 146.07611,6.4528732 C149.2597,6.4528732 151.66205,8.2106857 152.52142,11.159904 C158.43939,11.159904 158.43939,11.159904 158.43939,11.159904 C157.59955,5.4567795 152.63861,1.5700607 146.05658,1.5700607 C137.77533,1.5700607 132.61908,7.0388107 132.61908,16.062248 C132.61908,25.222404 137.77533,30.730217 146.1933,30.730217 C154.04486,30.730217 158.6933,26.081779 158.6933,18.405998 Z;" begin="animate5.begin+0.25s" id="animate6" repeatCount="0" keyTimes="0;1;" fill="freeze" keySplines="0 0 0 1" attributeName="d" dur="3s" calcMode="spline"></animate><animate additive="replace" dur="3s" begin="animate6.begin" id="animateColor6" values="yellow;black;" accumulate="none" repeatCount="0" fill="freeze" attributeName="fill" attributeType="XML"></animate><set begin="animate5.begin+0.01" id="setOpacity6" repeatCount="0" attributeName="opacity" to="1" attributeType="XML"></set><set begin="animate5.begin" id="setD6" repeatCount="0" attributeName="d" to="M200,17 C200,17 200,17 200,17 C200,17 200,17 200,17 C200,17 200,17 200,17 C200,17 200,17 200,17 C200,17 200,17 200,17 Z M200,32 C202.366928,32 204.375717,31.541508 206.508255,30.514532 C208.640793,29.487558 210.251709,28.20289 211.727478,26.352346 C213.203232,24.501802 214.097229,22.645405 214.623917,20.337814 C215.150604,18.030224 215.150604,15.969777 214.623917,13.662187 C214.097229,11.354595 213.203232,9.498197 211.727478,7.647653 C210.251709,5.797109 208.640793,4.512441 206.508255,3.485467 C204.375717,2.458493 202.366928,2 200,2 C197.633057,2 195.624283,2.458493 193.491745,3.485468 C191.359207,4.512442 189.748291,5.79711 188.272522,7.647654 C186.796768,9.4982 185.902771,11.354599 185.376083,13.662189 C184.849396,15.969775 184.849396,18.030222 185.376083,20.337812 C185.902771,22.645407 186.796768,24.501804 188.272522,26.352348 C189.748291,28.20289 191.359207,29.487558 193.491745,30.514532 C195.624283,31.541508 197.633072,32 200,32 Z" attributeType="XML"></set><set begin="animate5.begin" id="setFill6" repeatCount="0" attributeName="fill" to="yellow" attributeType="XML"></set><animate additive="replace" dur="1.2s" begin="animateOpacity5.begin+0.1" id="animateOpacity6" values="1;0;" accumulate="none" repeatCount="0" fill="freeze" attributeName="opacity" attributeType="XML"></animate></path><path stroke="black" id="circle_V" stroke-width="0" d="M210.606598,27.606602 C213.535538,24.67767 215,21.142134 215,17.000002 C215,12.857862 213.535538,9.32233 210.606598,6.393398 C207.677673,3.464466 204.142136,1.999998 200,2.000003 C195.857864,1.999998 192.322327,3.464466 189.393402,6.393398 C186.464462,9.32233 185,12.857868 185,16.999998 C185,21.142138 186.464462,24.67767 189.393402,27.6066 C192.322327,30.535534 195.857864,32.000004 200,31.999996 C204.142136,32 207.677673,30.535532 210.606598,27.606602 Z" fill="magenta" opacity="0"><animate values="M210.606598,27.606602 C213.535538,24.67767 215,21.142134 215,17.000002 C215,12.857862 213.535538,9.32233 210.606598,6.393398 C207.677673,3.464466 204.142136,1.999998 200,2.000003 C195.857864,1.999998 192.322327,3.464466 189.393402,6.393398 C186.464462,9.32233 185,12.857868 185,16.999998 C185,21.142138 186.464462,24.67767 189.393402,27.6066 C192.322327,30.535534 195.857864,32.000004 200,31.999996 C204.142136,32 207.677673,30.535532 210.606598,27.606602 Z;M121.56439,30.241936 C131.03705,2.058342 131.03705,2.058342 131.03705,2.058342 C124.61127,2.058342 124.61127,2.058342 124.61127,2.058342 C118.16595,24.167717 118.16595,24.167717 118.16595,24.167717 C118.02923,24.167717 118.02923,24.167717 118.02923,24.167717 C111.58392,2.058342 111.58392,2.058342 111.58392,2.058342 C104.98236,2.058342 104.98236,2.058342 104.98236,2.058342 C114.45502,30.241936 114.45502,30.241936 114.45502,30.241936 C121.56439,30.241936 121.56439,30.241936 121.56439,30.241936 Z;" begin="animate4.begin+0.25s" id="animate5" repeatCount="0" keyTimes="0;1;" fill="freeze" keySplines="0 0 0 1" attributeName="d" dur="3s" calcMode="spline"></animate><animate additive="replace" dur="3s" begin="animate5.begin" id="animateColor5" values="magenta;black;" accumulate="none" repeatCount="0" fill="freeze" attributeName="fill" attributeType="XML"></animate><set begin="animate4.begin+0.01" id="setOpacity5" repeatCount="0" attributeName="opacity" to="1" attributeType="XML"></set><set begin="animate4.begin" id="setD5" repeatCount="0" attributeName="d" to="M200,17 C200,17 200,17 200,17 C200,17 200,17 200,17 C200,17 200,17 200,17 C200,17 200,17 200,17 C200,17 200,17 200,17 Z M200,32 C202.366928,32 204.375717,31.541508 206.508255,30.514532 C208.640793,29.487558 210.251709,28.20289 211.727478,26.352346 C213.203232,24.501802 214.097229,22.645405 214.623917,20.337814 C215.150604,18.030224 215.150604,15.969777 214.623917,13.662187 C214.097229,11.354595 213.203232,9.498197 211.727478,7.647653 C210.251709,5.797109 208.640793,4.512441 206.508255,3.485467 C204.375717,2.458493 202.366928,2 200,2 C197.633057,2 195.624283,2.458493 193.491745,3.485468 C191.359207,4.512442 189.748291,5.79711 188.272522,7.647654 C186.796768,9.4982 185.902771,11.354599 185.376083,13.662189 C184.849396,15.969775 184.849396,18.030222 185.376083,20.337812 C185.902771,22.645407 186.796768,24.501804 188.272522,26.352348 C189.748291,28.20289 191.359207,29.487558 193.491745,30.514532 C195.624283,31.541508 197.633072,32 200,32 Z" attributeType="XML"></set><set begin="animate4.begin" id="setFill5" repeatCount="0" attributeName="fill" to="magenta" attributeType="XML"></set><animate additive="replace" dur="1.2s" begin="animateOpacity4.begin+0.1" id="animateOpacity5" values="1;0;" accumulate="none" repeatCount="0" fill="freeze" attributeName="opacity" attributeType="XML"></animate></path><path stroke="black" id="circle_S" stroke-width="0" d="M200,32 C202.071075,32 203.826828,31.650757 205.74025,30.858192 C207.653671,30.06563 209.142136,29.071066 210.606598,27.6066 C212.07106,26.142136 213.065628,24.653667 213.8582,22.740252 C214.650757,20.826834 215,19.071068 215,17 C215,14.928931 214.650757,13.173164 213.858185,11.259748 C213.065628,9.346332 212.071075,7.857864 210.606598,6.393398 C209.142136,4.928932 207.653671,3.934371 205.74025,3.141807 C203.826828,2.349244 202.071075,2 200,2 C197.928925,2 196.173157,2.349244 194.25975,3.141808 C192.346329,3.934371 190.857864,4.928933 189.393402,6.393399 C187.92894,7.857863 186.934372,9.346331 186.141815,11.259748 C185.349243,13.173163 185,14.92893 185,16.999998 C185,19.071068 185.349243,20.826836 186.1418,22.740252 C186.934372,24.653671 187.92894,26.142138 189.393402,27.606604 C190.857864,29.071066 192.346329,30.065628 194.25975,30.858192 C196.173172,31.650757 197.92894,32 200,32 Z" fill="cyan" opacity="0"><animate attributeName="d" values="M200,32 C202.071075,32 203.826828,31.650757 205.74025,30.858192 C207.653671,30.06563 209.142136,29.071066 210.606598,27.6066 C212.07106,26.142136 213.065628,24.653667 213.8582,22.740252 C214.650757,20.826834 215,19.071068 215,17 C215,14.928931 214.650757,13.173164 213.858185,11.259748 C213.065628,9.346332 212.071075,7.857864 210.606598,6.393398 C209.142136,4.928932 207.653671,3.934371 205.74025,3.141807 C203.826828,2.349244 202.071075,2 200,2 C197.928925,2 196.173157,2.349244 194.25975,3.141808 C192.346329,3.934371 190.857864,4.928933 189.393402,6.393399 C187.92894,7.857863 186.934372,9.346331 186.141815,11.259748 C185.349243,13.173163 185,14.92893 185,16.999998 C185,19.071068 185.349243,20.826836 186.1418,22.740252 C186.934372,24.653671 187.92894,26.142138 189.393402,27.606604 C190.857864,29.071066 192.346329,30.065628 194.25975,30.858192 C196.173172,31.650757 197.92894,32 200,32 Z;M80.802671,22.214592 C80.978453,27.507561 85.294859,30.730217 92.072203,30.730217 C99.06439,30.730217 103.49798,27.273186 103.49798,21.804436 C103.49798,17.507561 101.03705,15.085686 95.392515,13.874748 C91.974546,13.152092 91.974546,13.152092 91.974546,13.152092 C88.732359,12.409904 87.365171,11.433342 87.365171,9.6950607 C87.365171,7.605217 89.318296,6.2184982 92.228453,6.2184982 C95.177671,6.2184982 97.267515,7.6638107 97.462828,10.046623 C102.99017,10.046623 102.99017,10.046623 102.99017,10.046623 C102.89252,4.948967 98.771421,1.5700607 92.208921,1.5700607 C85.919859,1.5700607 81.427671,5.0075607 81.427671,10.202873 C81.427671,14.323967 83.986265,16.960686 89.181578,18.073967 C92.853453,18.874748 92.853453,18.874748 92.853453,18.874748 C96.25189,19.636467 97.599546,20.652092 97.599546,22.488029 C97.599546,24.558342 95.451109,26.062248 92.306578,26.062248 C89.181578,26.062248 86.759703,24.538811 86.486265,22.214592 C80.802671,22.214592 80.802671,22.214592 80.802671,22.214592 Z;" begin="animate3.begin+0.25s" id="animate4" dur="3s" fill="freeze" repeatCount="0" calcMode="spline" keyTimes="0;1;" keySplines="0 0 0 1"></animate><animate additive="replace" dur="3s" begin="animate4.begin" id="animateColor4" values="cyan;black;" accumulate="none" repeatCount="0" fill="freeze" attributeName="fill" attributeType="XML"></animate><set begin="animate3.begin+0.01" id="setOpacity4" repeatCount="0" attributeName="opacity" to="1" attributeType="XML"></set><set begin="animate3.begin" id="setD4" repeatCount="0" attributeName="d" to="M200,17 C200,17 200,17 200,17 C200,17 200,17 200,17 C200,17 200,17 200,17 C200,17 200,17 200,17 C200,17 200,17 200,17 Z M200,32 C202.366928,32 204.375717,31.541508 206.508255,30.514532 C208.640793,29.487558 210.251709,28.20289 211.727478,26.352346 C213.203232,24.501802 214.097229,22.645405 214.623917,20.337814 C215.150604,18.030224 215.150604,15.969777 214.623917,13.662187 C214.097229,11.354595 213.203232,9.498197 211.727478,7.647653 C210.251709,5.797109 208.640793,4.512441 206.508255,3.485467 C204.375717,2.458493 202.366928,2 200,2 C197.633057,2 195.624283,2.458493 193.491745,3.485468 C191.359207,4.512442 189.748291,5.79711 188.272522,7.647654 C186.796768,9.4982 185.902771,11.354599 185.376083,13.662189 C184.849396,15.969775 184.849396,18.030222 185.376083,20.337812 C185.902771,22.645407 186.796768,24.501804 188.272522,26.352348 C189.748291,28.20289 191.359207,29.487558 193.491745,30.514532 C195.624283,31.541508 197.633072,32 200,32 Z" attributeType="XML"></set><set begin="animate3.begin" id="setFill4" repeatCount="0" attributeName="fill" to="cyan" attributeType="XML"></set><animate additive="replace" dur="1.2s" begin="animateOpacity3.begin+0.1" id="animateOpacity4" values="1;0;" accumulate="none" repeatCount="0" fill="freeze" attributeName="opacity" attributeType="XML"></animate></path><path stroke="black" id="circle_c" stroke-width="0" d="M200,2 C196.686295,2 193.864075,2.916996 191.183228,4.864743 C188.50238,6.812493 186.758148,9.21322 185.734146,12.364743 C184.710159,15.516269 184.710159,18.48373 185.734146,21.635254 C186.758148,24.786777 188.50238,27.187506 191.183228,29.135254 C193.864075,31.083004 196.686295,32 200,32 C203.313705,32 206.135941,31.083004 208.816772,29.135254 C211.49762,27.187506 213.241852,24.786777 214.265854,21.635256 C215.289841,18.483734 215.289841,15.516273 214.265854,12.364747 C213.241852,9.21322 211.49762,6.812493 208.816772,4.864745 C206.135941,2.916996 203.313705,2 200,2 Z" fill="blue" opacity="0"><animate values="M200,2 C196.686295,2 193.864075,2.916996 191.183228,4.864743 C188.50238,6.812493 186.758148,9.21322 185.734146,12.364743 C184.710159,15.516269 184.710159,18.48373 185.734146,21.635254 C186.758148,24.786777 188.50238,27.187506 191.183228,29.135254 C193.864075,31.083004 196.686295,32 200,32 C203.313705,32 206.135941,31.083004 208.816772,29.135254 C211.49762,27.187506 213.241852,24.786777 214.265854,21.635256 C215.289841,18.483734 215.289841,15.516273 214.265854,12.364747 C213.241852,9.21322 211.49762,6.812493 208.816772,4.864745 C206.135941,2.916996 203.313705,2 200,2 Z;M78.615171,16.667717 C78.341734,11.882561 74.650328,8.3669357 68.869078,8.3669357 C62.482359,8.3669357 58.380796,12.663811 58.380796,19.480217 C58.380796,26.394279 62.482359,30.613029 68.90814,30.613029 C74.552671,30.613029 78.302671,27.429436 78.634703,22.429436 C73.322203,22.429436 73.322203,22.429436 73.322203,22.429436 C72.951109,24.792717 71.369078,26.101311 68.966734,26.101311 C66.017515,26.101311 64.162046,23.679436 64.162046,19.480217 C64.162046,15.359123 66.017515,12.859123 68.947203,12.859123 C71.427671,12.859123 72.990171,14.441154 73.302671,16.667717 C78.615171,16.667717 78.615171,16.667717 78.615171,16.667717 Z;" begin="animate2.begin+0.25s" id="animate3" repeatCount="0" fill="freeze" attributeName="d" dur="3s" calcMode="spline" keyTimes="0;1;" keySplines="0 0 0 1"></animate><animate additive="replace" dur="3s" begin="animate3.begin" id="animateColor3" values="blue;black;" accumulate="none" repeatCount="0" fill="freeze" attributeName="fill" attributeType="XML"></animate><set begin="animate2.begin+0.01" id="setOpacity3" repeatCount="0" attributeName="opacity" to="1" attributeType="XML"></set><set begin="animate2.begin" id="setD3" repeatCount="0" attributeName="d" to="M200,17 C200,17 200,17 200,17 C200,17 200,17 200,17 C200,17 200,17 200,17 C200,17 200,17 200,17 C200,17 200,17 200,17 Z M200,32 C202.366928,32 204.375717,31.541508 206.508255,30.514532 C208.640793,29.487558 210.251709,28.20289 211.727478,26.352346 C213.203232,24.501802 214.097229,22.645405 214.623917,20.337814 C215.150604,18.030224 215.150604,15.969777 214.623917,13.662187 C214.097229,11.354595 213.203232,9.498197 211.727478,7.647653 C210.251709,5.797109 208.640793,4.512441 206.508255,3.485467 C204.375717,2.458493 202.366928,2 200,2 C197.633057,2 195.624283,2.458493 193.491745,3.485468 C191.359207,4.512442 189.748291,5.79711 188.272522,7.647654 C186.796768,9.4982 185.902771,11.354599 185.376083,13.662189 C184.849396,15.969775 184.849396,18.030222 185.376083,20.337812 C185.902771,22.645407 186.796768,24.501804 188.272522,26.352348 C189.748291,28.20289 191.359207,29.487558 193.491745,30.514532 C195.624283,31.541508 197.633072,32 200,32 Z" attributeType="XML"></set><set begin="animate2.begin" id="setFill3" repeatCount="0" attributeName="fill" to="blue" attributeType="XML"></set><animate additive="replace" dur="1.2s" begin="animateOpacity2.begin+0.1" id="animateOpacity3" values="1;0;" accumulate="none" repeatCount="0" fill="freeze" attributeName="opacity" attributeType="XML"></animate></path><path stroke="black" id="circle_a" stroke-width="0" d="M200,17 C200,17 200,17 200,17 C200,17 200,17 200,17 C200,17 200,17 200,17 C200,17 200,17 200,17 C200,17 200,17 200,17 Z M200,32 C202.366928,32 204.375717,31.541508 206.508255,30.514532 C208.640793,29.487558 210.251709,28.20289 211.727478,26.352346 C213.203232,24.501802 214.097229,22.645405 214.623917,20.337814 C215.150604,18.030224 215.150604,15.969777 214.623917,13.662187 C214.097229,11.354595 213.203232,9.498197 211.727478,7.647653 C210.251709,5.797109 208.640793,4.512441 206.508255,3.485467 C204.375717,2.458493 202.366928,2 200,2 C197.633057,2 195.624283,2.458493 193.491745,3.485468 C191.359207,4.512442 189.748291,5.79711 188.272522,7.647654 C186.796768,9.4982 185.902771,11.354599 185.376083,13.662189 C184.849396,15.969775 184.849396,18.030222 185.376083,20.337812 C185.902771,22.645407 186.796768,24.501804 188.272522,26.352348 C189.748291,28.20289 191.359207,29.487558 193.491745,30.514532 C195.624283,31.541508 197.633072,32 200,32 Z" fill="green" opacity="0"><animate values="M200,17 C200,17 200,17 200,17 C200,17 200,17 200,17 C200,17 200,17 200,17 C200,17 200,17 200,17 C200,17 200,17 200,17 Z M200,32 C202.366928,32 204.375717,31.541508 206.508255,30.514532 C208.640793,29.487558 210.251709,28.20289 211.727478,26.352346 C213.203232,24.501802 214.097229,22.645405 214.623917,20.337814 C215.150604,18.030224 215.150604,15.969777 214.623917,13.662187 C214.097229,11.354595 213.203232,9.498197 211.727478,7.647653 C210.251709,5.797109 208.640793,4.512441 206.508255,3.485467 C204.375717,2.458493 202.366928,2 200,2 C197.633057,2 195.624283,2.458493 193.491745,3.485468 C191.359207,4.512442 189.748291,5.79711 188.272522,7.647654 C186.796768,9.4982 185.902771,11.354599 185.376083,13.662189 C184.849396,15.969775 184.849396,18.030222 185.376083,20.337812 C185.902771,22.645407 186.796768,24.501804 188.272522,26.352348 C189.748291,28.20289 191.359207,29.487558 193.491745,30.514532 C195.624283,31.541508 197.633072,32 200,32 Z;M45.060484,26.335686 C42.990171,26.335686 41.642515,25.339592 41.642515,23.757561 C41.642515,22.175529 42.912046,21.238029 45.294859,21.081779 C49.806578,20.769279 49.806578,20.769279 49.806578,20.769279 C49.806578,22.351311 49.806578,22.351311 49.806578,22.351311 C49.806578,24.695061 47.697203,26.335686 45.060484,26.335686 Z M43.205015,30.495842 C45.958921,30.495842 48.615171,29.167717 49.787046,26.921623 C49.904234,26.921623 49.904234,26.921623 49.904234,26.921623 C49.904234,30.241936 49.904234,30.241936 49.904234,30.241936 C55.412046,30.241936 55.412046,30.241936 55.412046,30.241936 C55.412046,15.495842 55.412046,15.495842 55.412046,15.495842 C55.412046,11.198967 51.798765,8.3669357 46.271421,8.3669357 C40.900328,8.3669357 37.18939,11.198967 37.03314,15.300529 C42.247984,15.300529 42.247984,15.300529 42.247984,15.300529 C42.521421,13.738029 43.966734,12.644279 46.037046,12.644279 C48.380796,12.644279 49.806578,13.777092 49.806578,15.847404 C49.806578,17.273186 49.806578,17.273186 49.806578,17.273186 C44.435484,17.605217 44.435484,17.605217 44.435484,17.605217 C38.947203,17.937248 35.958921,20.144279 35.958921,24.050529 C35.958921,27.898186 39.06439,30.495842 43.205015,30.495842 Z;" begin="animate1.begin+0.25s" id="animate2" repeatCount="0" fill="freeze" attributeName="d" dur="3s" calcMode="spline" keyTimes="0;1;" keySplines="0 0 0 1"></animate><animate additive="replace" dur="3s" begin="animate2.begin" id="animateColor2" values="green;black;" accumulate="none" repeatCount="0" fill="freeze" attributeName="fill" attributeType="XML"></animate><set begin="animate1.begin+0.01" id="setOpacity2" repeatCount="0" attributeName="opacity" to="1" attributeType="XML"></set><set begin="animate1.begin" id="setD2" repeatCount="0" attributeName="d" to="M200,17 C200,17 200,17 200,17 C200,17 200,17 200,17 C200,17 200,17 200,17 C200,17 200,17 200,17 C200,17 200,17 200,17 Z M200,32 C202.366928,32 204.375717,31.541508 206.508255,30.514532 C208.640793,29.487558 210.251709,28.20289 211.727478,26.352346 C213.203232,24.501802 214.097229,22.645405 214.623917,20.337814 C215.150604,18.030224 215.150604,15.969777 214.623917,13.662187 C214.097229,11.354595 213.203232,9.498197 211.727478,7.647653 C210.251709,5.797109 208.640793,4.512441 206.508255,3.485467 C204.375717,2.458493 202.366928,2 200,2 C197.633057,2 195.624283,2.458493 193.491745,3.485468 C191.359207,4.512442 189.748291,5.79711 188.272522,7.647654 C186.796768,9.4982 185.902771,11.354599 185.376083,13.662189 C184.849396,15.969775 184.849396,18.030222 185.376083,20.337812 C185.902771,22.645407 186.796768,24.501804 188.272522,26.352348 C189.748291,28.20289 191.359207,29.487558 193.491745,30.514532 C195.624283,31.541508 197.633072,32 200,32 Z" attributeType="XML"></set><set begin="animate1.begin" id="setFill2" repeatCount="0" attributeName="fill" to="green" attributeType="XML"></set><animate additive="replace" dur="1.2s" begin="animateOpacity1.begin+0.1" id="animateOpacity2" values="1;0;" accumulate="none" repeatCount="0" fill="freeze" attributeName="opacity" attributeType="XML"></animate></path><path stroke="black" id="circle_m" stroke-width="0" d="M184.995575,17.245577 C184.995575,18.823534 185.196869,20.159052 185.661987,21.666904 C186.127106,23.174757 186.713104,24.391609 187.60199,25.695377 C188.490891,26.999146 189.409531,27.989212 190.643234,28.973049 C191.876923,29.956886 193.046585,30.632191 194.515457,31.208683 C195.984344,31.785175 197.301086,32.085712 198.874634,32.203636 C200.448166,32.321556 201.794998,32.220623 203.333389,31.869495 C204.87178,31.518368 206.129028,31.024933 207.495575,30.235958 C208.862122,29.44698 209.918076,28.604889 210.991364,27.448166 C212.064636,26.291443 212.82547,25.175522 213.510101,23.753832 C214.194763,22.332144 214.592865,21.041544 214.828033,19.481213 C215.063217,17.920879 215.063217,16.570276 214.828033,15.009945 C214.592865,13.449612 214.194763,12.159012 213.510101,10.737322 C212.82547,9.315632 212.064636,8.19971 210.991364,7.042986 C209.918076,5.886261 208.862122,5.044172 207.495575,4.255196 C206.129028,3.466217 204.87178,2.972786 203.333389,2.621658 C201.794998,2.270531 200.448166,2.1696 198.874634,2.287519 C197.301086,2.405442 195.984344,2.70598 194.515457,3.282473 C193.046585,3.858963 191.876923,4.534266 190.643234,5.518105 C189.409546,6.501942 188.490891,7.492004 187.60199,8.795773 C186.713104,10.099545 186.127106,11.316399 185.661987,12.824249 C185.196869,14.3321 184.995575,15.667618 184.995575,17.245575 Z" fill="red" opacity="0"><animate values="M184.995575,17.245577 C184.995575,18.823534 185.196869,20.159052 185.661987,21.666904 C186.127106,23.174757 186.713104,24.391609 187.60199,25.695377 C188.490891,26.999146 189.409531,27.989212 190.643234,28.973049 C191.876923,29.956886 193.046585,30.632191 194.515457,31.208683 C195.984344,31.785175 197.301086,32.085712 198.874634,32.203636 C200.448166,32.321556 201.794998,32.220623 203.333389,31.869495 C204.87178,31.518368 206.129028,31.024933 207.495575,30.235958 C208.862122,29.44698 209.918076,28.604889 210.991364,27.448166 C212.064636,26.291443 212.82547,25.175522 213.510101,23.753832 C214.194763,22.332144 214.592865,21.041544 214.828033,19.481213 C215.063217,17.920879 215.063217,16.570276 214.828033,15.009945 C214.592865,13.449612 214.194763,12.159012 213.510101,10.737322 C212.82547,9.315632 212.064636,8.19971 210.991364,7.042986 C209.918076,5.886261 208.862122,5.044172 207.495575,4.255196 C206.129028,3.466217 204.87178,2.972786 203.333389,2.621658 C201.794998,2.270531 200.448166,2.1696 198.874634,2.287519 C197.301086,2.405442 195.984344,2.70598 194.515457,3.282473 C193.046585,3.858963 191.876923,4.534266 190.643234,5.518105 C189.409546,6.501942 188.490891,7.492004 187.60199,8.795773 C186.713104,10.099545 186.127106,11.316399 185.661987,12.824249 C185.196869,14.3321 184.995575,15.667618 184.995575,17.245575 Z;M1.3690775,30.241936 C7.0722025,30.241936 7.0722025,30.241936 7.0722025,30.241936 C7.0722025,17.312248 7.0722025,17.312248 7.0722025,17.312248 C7.0722025,14.870842 8.6347025,13.152092 10.880796,13.152092 C13.087828,13.152092 14.415953,14.538811 14.415953,16.843498 C14.415953,30.241936 14.415953,30.241936 14.415953,30.241936 C19.923765,30.241936 19.923765,30.241936 19.923765,30.241936 C19.923765,17.234123 19.923765,17.234123 19.923765,17.234123 C19.923765,14.792717 21.427671,13.152092 23.673765,13.152092 C25.997984,13.152092 27.267515,14.538811 27.267515,17.058342 C27.267515,30.241936 27.267515,30.241936 27.267515,30.241936 C32.97064,30.241936 32.97064,30.241936 32.97064,30.241936 C32.97064,15.632561 32.97064,15.632561 32.97064,15.632561 C32.97064,11.296623 30.138609,8.4255295 25.919859,8.4255295 C22.794859,8.4255295 20.216734,10.124748 19.240171,12.820061 C19.122984,12.820061 19.122984,12.820061 19.122984,12.820061 C18.400328,10.007561 16.212828,8.4255295 13.12689,8.4255295 C10.255796,8.4255295 7.9120463,10.046623 6.9940775,12.644279 C6.87689,12.644279 6.87689,12.644279 6.87689,12.644279 C6.87689,8.7380295 6.87689,8.7380295 6.87689,8.7380295 C1.3690775,8.7380295 1.3690775,8.7380295 1.3690775,8.7380295 C1.3690775,30.241936 1.3690775,30.241936 1.3690775,30.241936 Z;" begin="animateIntro.end+1" id="animate1" calcMode="spline" keySplines="0 0 0 1" fill="freeze" attributeName="d" keyTimes="0;1;" repeatCount="0" dur="3s"></animate><animate additive="replace" dur="3s" begin="animate1.begin" id="colorAnimate1" values="red;black;" accumulate="none" repeatCount="0" fill="freeze" attributeName="fill" attributeType="XML"></animate><set begin="animate1.begin" id="setOpacity1" repeatCount="0" attributeName="opacity" to="1" attributeType="XML"></set><animate additive="replace" dur="1.2s" begin="animate1.begin+6s" id="animateOpacity1" values="1;0;" accumulate="none" repeatCount="0" fill="freeze" attributeName="opacity" attributeType="XML"></animate></path></g><g id="g3" transform=""><path d="M1.3690775,30.241936 C7.0722025,30.241936 7.0722025,30.241936 7.0722025,30.241936 C7.0722025,17.312248 7.0722025,17.312248 7.0722025,17.312248 C7.0722025,14.870842 8.6347025,13.152092 10.880796,13.152092 C13.087828,13.152092 14.415953,14.538811 14.415953,16.843498 C14.415953,30.241936 14.415953,30.241936 14.415953,30.241936 C19.923765,30.241936 19.923765,30.241936 19.923765,30.241936 C19.923765,17.234123 19.923765,17.234123 19.923765,17.234123 C19.923765,14.792717 21.427671,13.152092 23.673765,13.152092 C25.997984,13.152092 27.267515,14.538811 27.267515,17.058342 C27.267515,30.241936 27.267515,30.241936 27.267515,30.241936 C32.97064,30.241936 32.97064,30.241936 32.97064,30.241936 C32.97064,15.632561 32.97064,15.632561 32.97064,15.632561 C32.97064,11.296623 30.138609,8.4255295 25.919859,8.4255295 C22.794859,8.4255295 20.216734,10.124748 19.240171,12.820061 C19.122984,12.820061 19.122984,12.820061 19.122984,12.820061 C18.400328,10.007561 16.212828,8.4255295 13.12689,8.4255295 C10.255796,8.4255295 7.9120463,10.046623 6.9940775,12.644279 C6.87689,12.644279 6.87689,12.644279 6.87689,12.644279 C6.87689,8.7380295 6.87689,8.7380295 6.87689,8.7380295 C1.3690775,8.7380295 1.3690775,8.7380295 1.3690775,8.7380295 C1.3690775,30.241936 1.3690775,30.241936 1.3690775,30.241936 Z" id="logo_m" style="font-style:normal;font-variant:normal;font-weight:bold;font-stretch:normal;font-size:medium;line-height:125%;font-family:'System Font';-inkscape-font-specification:'System Font, Bold';text-align:start;letter-spacing:0px;word-spacing:0px;writing-mode:lr-tb;text-anchor:start;fill:#000000;fill-opacity:1;stroke:none;stroke-width:1px;stroke-linecap:butt;stroke-linejoin:miter;stroke-opacity:1" visibility="hidden"></path><path d="M45.060484,26.335686 C42.990171,26.335686 41.642515,25.339592 41.642515,23.757561 C41.642515,22.175529 42.912046,21.238029 45.294859,21.081779 C49.806578,20.769279 49.806578,20.769279 49.806578,20.769279 C49.806578,22.351311 49.806578,22.351311 49.806578,22.351311 C49.806578,24.695061 47.697203,26.335686 45.060484,26.335686 Z M43.205015,30.495842 C45.958921,30.495842 48.615171,29.167717 49.787046,26.921623 C49.904234,26.921623 49.904234,26.921623 49.904234,26.921623 C49.904234,30.241936 49.904234,30.241936 49.904234,30.241936 C55.412046,30.241936 55.412046,30.241936 55.412046,30.241936 C55.412046,15.495842 55.412046,15.495842 55.412046,15.495842 C55.412046,11.198967 51.798765,8.3669357 46.271421,8.3669357 C40.900328,8.3669357 37.18939,11.198967 37.03314,15.300529 C42.247984,15.300529 42.247984,15.300529 42.247984,15.300529 C42.521421,13.738029 43.966734,12.644279 46.037046,12.644279 C48.380796,12.644279 49.806578,13.777092 49.806578,15.847404 C49.806578,17.273186 49.806578,17.273186 49.806578,17.273186 C44.435484,17.605217 44.435484,17.605217 44.435484,17.605217 C38.947203,17.937248 35.958921,20.144279 35.958921,24.050529 C35.958921,27.898186 39.06439,30.495842 43.205015,30.495842 Z" id="logo_a" style="font-style:normal;font-variant:normal;font-weight:bold;font-stretch:normal;font-size:medium;line-height:125%;font-family:'System Font';-inkscape-font-specification:'System Font, Bold';text-align:start;letter-spacing:0px;word-spacing:0px;writing-mode:lr-tb;text-anchor:start;fill:#000000;fill-opacity:1;stroke:none;stroke-width:1px;stroke-linecap:butt;stroke-linejoin:miter;stroke-opacity:1" visibility="hidden"></path><path d="M78.615171,16.667717 C78.341734,11.882561 74.650328,8.3669357 68.869078,8.3669357 C62.482359,8.3669357 58.380796,12.663811 58.380796,19.480217 C58.380796,26.394279 62.482359,30.613029 68.90814,30.613029 C74.552671,30.613029 78.302671,27.429436 78.634703,22.429436 C73.322203,22.429436 73.322203,22.429436 73.322203,22.429436 C72.951109,24.792717 71.369078,26.101311 68.966734,26.101311 C66.017515,26.101311 64.162046,23.679436 64.162046,19.480217 C64.162046,15.359123 66.017515,12.859123 68.947203,12.859123 C71.427671,12.859123 72.990171,14.441154 73.302671,16.667717 C78.615171,16.667717 78.615171,16.667717 78.615171,16.667717 Z" id="logo_c" style="font-style:normal;font-variant:normal;font-weight:bold;font-stretch:normal;font-size:medium;line-height:125%;font-family:'System Font';-inkscape-font-specification:'System Font, Bold';text-align:start;letter-spacing:0px;word-spacing:0px;writing-mode:lr-tb;text-anchor:start;fill:#000000;fill-opacity:1;stroke:none;stroke-width:1px;stroke-linecap:butt;stroke-linejoin:miter;stroke-opacity:1" visibility="hidden"></path><path d="M80.802671,22.214592 C80.978453,27.507561 85.294859,30.730217 92.072203,30.730217 C99.06439,30.730217 103.49798,27.273186 103.49798,21.804436 C103.49798,17.507561 101.03705,15.085686 95.392515,13.874748 C91.974546,13.152092 91.974546,13.152092 91.974546,13.152092 C88.732359,12.409904 87.365171,11.433342 87.365171,9.6950607 C87.365171,7.605217 89.318296,6.2184982 92.228453,6.2184982 C95.177671,6.2184982 97.267515,7.6638107 97.462828,10.046623 C102.99017,10.046623 102.99017,10.046623 102.99017,10.046623 C102.89252,4.948967 98.771421,1.5700607 92.208921,1.5700607 C85.919859,1.5700607 81.427671,5.0075607 81.427671,10.202873 C81.427671,14.323967 83.986265,16.960686 89.181578,18.073967 C92.853453,18.874748 92.853453,18.874748 92.853453,18.874748 C96.25189,19.636467 97.599546,20.652092 97.599546,22.488029 C97.599546,24.558342 95.451109,26.062248 92.306578,26.062248 C89.181578,26.062248 86.759703,24.538811 86.486265,22.214592 C80.802671,22.214592 80.802671,22.214592 80.802671,22.214592 Z" id="logo_S" style="font-style:normal;font-variant:normal;font-weight:bold;font-stretch:normal;font-size:medium;line-height:125%;font-family:'System Font';-inkscape-font-specification:'System Font, Bold';text-align:start;letter-spacing:0px;word-spacing:0px;writing-mode:lr-tb;text-anchor:start;fill:#000000;fill-opacity:1;stroke:none;stroke-width:1px;stroke-linecap:butt;stroke-linejoin:miter;stroke-opacity:1" visibility="hidden"></path><path d="M121.56439,30.241936 C131.03705,2.058342 131.03705,2.058342 131.03705,2.058342 C124.61127,2.058342 124.61127,2.058342 124.61127,2.058342 C118.16595,24.167717 118.16595,24.167717 118.16595,24.167717 C118.02923,24.167717 118.02923,24.167717 118.02923,24.167717 C111.58392,2.058342 111.58392,2.058342 111.58392,2.058342 C104.98236,2.058342 104.98236,2.058342 104.98236,2.058342 C114.45502,30.241936 114.45502,30.241936 114.45502,30.241936 C121.56439,30.241936 121.56439,30.241936 121.56439,30.241936 Z" id="logo_V" style="font-style:normal;font-variant:normal;font-weight:bold;font-stretch:normal;font-size:medium;line-height:125%;font-family:'System Font';-inkscape-font-specification:'System Font, Bold';text-align:start;letter-spacing:0px;word-spacing:0px;writing-mode:lr-tb;text-anchor:start;fill:#000000;fill-opacity:1;stroke:none;stroke-width:1px;stroke-linecap:butt;stroke-linejoin:miter;stroke-opacity:1" visibility="hidden"></path><path d="M158.6933,18.405998 C158.6933,15.222404 158.6933,15.222404 158.6933,15.222404 C146.8183,15.222404 146.8183,15.222404 146.8183,15.222404 C146.8183,19.519279 146.8183,19.519279 146.8183,19.519279 C152.95111,19.519279 152.95111,19.519279 152.95111,19.519279 C152.93158,19.968498 152.93158,19.968498 152.93158,19.968498 C152.81439,23.464592 150.13861,25.827873 146.29095,25.827873 C141.60345,25.827873 138.6347,22.097404 138.6347,15.984123 C138.6347,9.9880295 141.42767,6.4528732 146.07611,6.4528732 C149.2597,6.4528732 151.66205,8.2106857 152.52142,11.159904 C158.43939,11.159904 158.43939,11.159904 158.43939,11.159904 C157.59955,5.4567795 152.63861,1.5700607 146.05658,1.5700607 C137.77533,1.5700607 132.61908,7.0388107 132.61908,16.062248 C132.61908,25.222404 137.77533,30.730217 146.1933,30.730217 C154.04486,30.730217 158.6933,26.081779 158.6933,18.405998 Z" id="logo_G" style="font-style:normal;font-variant:normal;font-weight:bold;font-stretch:normal;font-size:medium;line-height:125%;font-family:'System Font';-inkscape-font-specification:'System Font, Bold';text-align:start;letter-spacing:0px;word-spacing:0px;writing-mode:lr-tb;text-anchor:start;fill:#000000;fill-opacity:1;stroke:none;stroke-width:1px;stroke-linecap:butt;stroke-linejoin:miter;stroke-opacity:1" visibility="hidden"></path></g><g id="g1" transform=""><path stroke="black" stroke-width="3" id="bezierCirclePath1" d="M200,32 C201.577957,32 202.913483,31.798702 204.421326,31.333591 C205.929184,30.868481 207.146027,30.282475 208.449799,29.393581 C209.753571,28.504686 210.743637,27.586042 211.727478,26.352346 C212.711319,25.11865 213.386612,23.948994 213.963104,22.480114 C214.539597,21.011236 214.840134,19.694494 214.958054,18.120951 C215.075974,16.547407 214.975052,15.20058 214.623917,13.662187 C214.272797,12.123792 213.779358,10.86655 212.990387,9.5 C212.201401,8.133449 211.359314,7.077504 210.202591,6.004221 C209.045868,4.930938 207.929947,4.170115 206.508255,3.485466 C205.086563,2.800817 203.795959,2.40272 202.235641,2.167538 C200.675308,1.932356 199.324692,1.932356 197.764374,2.167538 C196.204041,2.40272 194.913437,2.800818 193.491745,3.485468 C192.070053,4.170117 190.954132,4.93094 189.797409,6.004223 C188.640686,7.077506 187.798599,8.133451 187.009613,9.500001 C186.220642,10.866551 185.727203,12.123794 185.376083,13.662188 C185.024948,15.200579 184.924026,16.547407 185.041946,18.120951 C185.159866,19.694498 185.460403,21.01124 186.036896,22.480118 C186.613388,23.948994 187.288681,25.11865 188.272522,26.352346 C189.256363,27.58604 190.246429,28.504686 191.550201,29.393581 C192.853973,30.282476 194.070816,30.868481 195.578674,31.333591 C197.086517,31.798702 198.422043,32 200,32  Z " fill="black" visibility="hidden"></path><circle stroke="#000000" visibility="visible" id="yellowCircle" cy="17px" stroke-width="0" fill="yellow" r="15px" cx="200px" transform=""><set begin="animate6.begin" id="setHiddenYellow" repeatCount="0" attributeName="visibility" to="hidden" attributeType="XML"></set><set begin="animateIntro.begin+0.75" id="setVisibilityYellow" repeatCount="0" attributeName="visibility" to="visible" attributeType="XML"></set><animate begin="animateIntro.begin+0.75" id="animateIntroYellow" attributeName="cx" keySplines="0 0 0 1" repeatCount="0" accumulate="none" fill="freeze" keyTimes="0;1;" additive="replace" values="-20;200;" calcMode="spline" attributeType="XML" dur="3s"></animate></circle><circle stroke="#000000" visibility="visible" id="magentaCircle" cy="17px" stroke-width="0" fill="magenta" r="15px" cx="200px" transform=""><set begin="animate5.begin" id="setHiddenMagenta" repeatCount="0" attributeName="visibility" to="hidden" attributeType="XML"></set><set begin="animateIntro.begin+0.60" id="setVisibilityMagenta" repeatCount="0" attributeName="visibility" to="visible" attributeType="XML"></set><animate begin="animateIntro.begin+0.60" id="animateIntroMagenta" attributeName="cx" keySplines="0 0 0 1" repeatCount="0" accumulate="none" fill="freeze" keyTimes="0;1;" additive="replace" values="-20;200;" calcMode="spline" attributeType="XML" dur="3s"></animate></circle><circle stroke="#000000" visibility="visible" id="cyanCircle" cy="17px" stroke-width="0" fill="cyan" r="15px" cx="200px" transform=""><set begin="animate4.begin" id="setHiddenCyan" repeatCount="0" attributeName="visibility" to="hidden" attributeType="XML"></set><set begin="animateIntro.begin+0.45" id="setVisibilityCyan" repeatCount="0" attributeName="visibility" to="visible" attributeType="XML"></set><animate begin="animateIntro.begin+0.45" id="animateIntroCyan" attributeName="cx" keySplines="0 0 0 1" repeatCount="0" accumulate="none" fill="freeze" keyTimes="0;1;" additive="replace" values="-20;200;" calcMode="spline" attributeType="XML" dur="3s"></animate></circle><circle stroke="#000000" visibility="visible" id="blueCircle" cy="17px" stroke-width="0" fill="blue" r="15px" cx="200px" transform=""><set begin="animate3.begin" id="setHiddenBlue" repeatCount="0" attributeName="visibility" to="hidden" attributeType="XML"></set><set begin="animateIntro.begin+0.30" id="setVisibilityBlue" repeatCount="0" attributeName="visibility" to="visible" attributeType="XML"></set><animate begin="animateIntro.begin+0.30" id="animateIntroBlue" attributeName="cx" keySplines="0 0 0 1" repeatCount="0" accumulate="none" fill="freeze" keyTimes="0;1;" additive="replace" values="-20;200;" calcMode="spline" attributeType="XML" dur="3s"></animate></circle><circle stroke="#000000" visibility="visible" id="greenCircle" cy="17px" stroke-width="0" fill="green" r="15px" cx="200px" transform=""><set begin="animate2.begin" id="setHiddenGreen" repeatCount="0" attributeName="visibility" to="hidden" attributeType="XML"></set><set begin="animateIntro.begin+0.15" id="setVisibilityGreen" repeatCount="0" attributeName="visibility" to="visible" attributeType="XML"></set><animate begin="animateIntro.begin+0.15" id="animateIntroGreen" attributeName="cx" keySplines="0 0 0 1" repeatCount="0" accumulate="none" fill="freeze" keyTimes="0;1;" additive="replace" values="-20;200;" calcMode="spline" attributeType="XML" dur="3s"></animate></circle><circle stroke="#000000" visibility="visible" id="redCircle" cy="17px" stroke-width="0" fill="red" r="15px" cx="200px" transform=""><set begin="animate1.begin" id="setHiddenRed" repeatCount="0" attributeName="visibility" to="hidden" attributeType="XML"></set><set begin="animateIntro.begin" id="restartVisibility" repeatCount="0" attributeName="visibility" to="visible" attributeType="XML"></set><animate begin="0s; animateIntro.begin+10;" id="animateIntro" attributeName="cx" keySplines="0 0 0 1" repeatCount="0" accumulate="none" fill="freeze" keyTimes="0;1;" additive="replace" values="-20;200;" calcMode="spline" attributeType="XML" dur="3s"></animate></circle></g></g></svg>